%TF.GenerationSoftware,KiCad,Pcbnew,9.0.6*%
%TF.CreationDate,2026-03-01T09:21:26-05:00*%
%TF.ProjectId,acmi-pwrbrd,61636d69-2d70-4777-9262-72642e6b6963,rev?*%
%TF.SameCoordinates,Original*%
%TF.FileFunction,Copper,L1,Top*%
%TF.FilePolarity,Positive*%
%FSLAX46Y46*%
G04 Gerber Fmt 4.6, Leading zero omitted, Abs format (unit mm)*
G04 Created by KiCad (PCBNEW 9.0.6) date 2026-03-01 09:21:26*
%MOMM*%
%LPD*%
G01*
G04 APERTURE LIST*
G04 Aperture macros list*
%AMRoundRect*
0 Rectangle with rounded corners*
0 $1 Rounding radius*
0 $2 $3 $4 $5 $6 $7 $8 $9 X,Y pos of 4 corners*
0 Add a 4 corners polygon primitive as box body*
4,1,4,$2,$3,$4,$5,$6,$7,$8,$9,$2,$3,0*
0 Add four circle primitives for the rounded corners*
1,1,$1+$1,$2,$3*
1,1,$1+$1,$4,$5*
1,1,$1+$1,$6,$7*
1,1,$1+$1,$8,$9*
0 Add four rect primitives between the rounded corners*
20,1,$1+$1,$2,$3,$4,$5,0*
20,1,$1+$1,$4,$5,$6,$7,0*
20,1,$1+$1,$6,$7,$8,$9,0*
20,1,$1+$1,$8,$9,$2,$3,0*%
G04 Aperture macros list end*
%TA.AperFunction,SMDPad,CuDef*%
%ADD10RoundRect,0.200000X-0.275000X0.200000X-0.275000X-0.200000X0.275000X-0.200000X0.275000X0.200000X0*%
%TD*%
%TA.AperFunction,ComponentPad*%
%ADD11C,2.800000*%
%TD*%
%TA.AperFunction,SMDPad,CuDef*%
%ADD12RoundRect,0.243750X0.456250X-0.243750X0.456250X0.243750X-0.456250X0.243750X-0.456250X-0.243750X0*%
%TD*%
%TA.AperFunction,ComponentPad*%
%ADD13C,1.574800*%
%TD*%
%TA.AperFunction,ComponentPad*%
%ADD14C,7.500000*%
%TD*%
%TA.AperFunction,SMDPad,CuDef*%
%ADD15RoundRect,0.243750X-0.456250X0.243750X-0.456250X-0.243750X0.456250X-0.243750X0.456250X0.243750X0*%
%TD*%
%TA.AperFunction,ComponentPad*%
%ADD16R,1.900000X1.900000*%
%TD*%
%TA.AperFunction,ComponentPad*%
%ADD17C,1.900000*%
%TD*%
%TA.AperFunction,ViaPad*%
%ADD18C,1.000000*%
%TD*%
%TA.AperFunction,ViaPad*%
%ADD19C,2.000000*%
%TD*%
%TA.AperFunction,Conductor*%
%ADD20C,0.200000*%
%TD*%
%TA.AperFunction,Conductor*%
%ADD21C,0.500000*%
%TD*%
%TA.AperFunction,Conductor*%
%ADD22C,3.000000*%
%TD*%
G04 APERTURE END LIST*
D10*
%TO.P,R6,1*%
%TO.N,+12VB*%
X195212000Y-189206000D03*
%TO.P,R6,2*%
%TO.N,Net-(D6-A)*%
X195212000Y-190856000D03*
%TD*%
D11*
%TO.P,TP3,1,1*%
%TO.N,+5V*%
X185000000Y-185937500D03*
%TD*%
%TO.P,TP1,1,1*%
%TO.N,+15V*%
X175000000Y-185937500D03*
%TD*%
D12*
%TO.P,D6,1,K*%
%TO.N,GND*%
X195212000Y-194763000D03*
%TO.P,D6,2,A*%
%TO.N,Net-(D6-A)*%
X195212000Y-192888000D03*
%TD*%
D13*
%TO.P,J7,1*%
%TO.N,+15V*%
X157564301Y-83225000D03*
%TO.P,J7,2*%
%TO.N,+5V*%
X157564301Y-80225001D03*
%TO.P,J7,3*%
%TO.N,GND*%
X157564301Y-77225002D03*
%TO.P,J7,4*%
X157564301Y-74225002D03*
%TO.P,J7,5*%
%TO.N,-5V*%
X157564301Y-71225003D03*
%TO.P,J7,6*%
%TO.N,-15V*%
X157564301Y-68225004D03*
%TO.P,J7,7*%
%TO.N,+15V*%
X160564300Y-83225000D03*
%TO.P,J7,8*%
%TO.N,+5V*%
X160564300Y-80225001D03*
%TO.P,J7,9*%
%TO.N,GND*%
X160564300Y-77225002D03*
%TO.P,J7,10*%
X160564300Y-74225002D03*
%TO.P,J7,11*%
%TO.N,-5V*%
X160564300Y-71225003D03*
%TO.P,J7,12*%
%TO.N,-15V*%
X160564300Y-68225004D03*
%TD*%
D14*
%TO.P,MT2,1,1*%
%TO.N,GND*%
X205000000Y-40000000D03*
%TD*%
D11*
%TO.P,TP7,1,1*%
%TO.N,GND*%
X164986000Y-186030000D03*
%TD*%
%TO.P,TP5,1,1*%
%TO.N,+12VA*%
X190000000Y-185937500D03*
%TD*%
D10*
%TO.P,R3,1*%
%TO.N,+5V*%
X185000000Y-189175000D03*
%TO.P,R3,2*%
%TO.N,Net-(D3-A)*%
X185000000Y-190825000D03*
%TD*%
D13*
%TO.P,J4,1*%
%TO.N,+15V*%
X157564301Y-140000000D03*
%TO.P,J4,2*%
%TO.N,+5V*%
X157564301Y-137000001D03*
%TO.P,J4,3*%
%TO.N,GND*%
X157564301Y-134000002D03*
%TO.P,J4,4*%
X157564301Y-131000002D03*
%TO.P,J4,5*%
%TO.N,-5V*%
X157564301Y-128000003D03*
%TO.P,J4,6*%
%TO.N,-15V*%
X157564301Y-125000004D03*
%TO.P,J4,7*%
%TO.N,+15V*%
X160564300Y-140000000D03*
%TO.P,J4,8*%
%TO.N,+5V*%
X160564300Y-137000001D03*
%TO.P,J4,9*%
%TO.N,GND*%
X160564300Y-134000002D03*
%TO.P,J4,10*%
X160564300Y-131000002D03*
%TO.P,J4,11*%
%TO.N,-5V*%
X160564300Y-128000003D03*
%TO.P,J4,12*%
%TO.N,-15V*%
X160564300Y-125000004D03*
%TD*%
D10*
%TO.P,R5,1*%
%TO.N,+12VA*%
X190000000Y-189175000D03*
%TO.P,R5,2*%
%TO.N,Net-(D5-A)*%
X190000000Y-190825000D03*
%TD*%
%TO.P,R1,1*%
%TO.N,+15V*%
X175080000Y-189394000D03*
%TO.P,R1,2*%
%TO.N,Net-(D1-A)*%
X175080000Y-191044000D03*
%TD*%
D11*
%TO.P,TP4,1,1*%
%TO.N,-5V*%
X180000000Y-185937500D03*
%TD*%
D15*
%TO.P,D4,1,K*%
%TO.N,Net-(D4-K)*%
X179972000Y-193142000D03*
%TO.P,D4,2,A*%
%TO.N,GND*%
X179972000Y-195017000D03*
%TD*%
D11*
%TO.P,TP2,1,1*%
%TO.N,-15V*%
X170000000Y-185887500D03*
%TD*%
D12*
%TO.P,D5,1,K*%
%TO.N,GND*%
X190132000Y-194763000D03*
%TO.P,D5,2,A*%
%TO.N,Net-(D5-A)*%
X190132000Y-192888000D03*
%TD*%
D10*
%TO.P,R4,1*%
%TO.N,-5V*%
X180000000Y-189175000D03*
%TO.P,R4,2*%
%TO.N,Net-(D4-K)*%
X180000000Y-190825000D03*
%TD*%
D12*
%TO.P,D3,1,K*%
%TO.N,GND*%
X185052000Y-194763000D03*
%TO.P,D3,2,A*%
%TO.N,Net-(D3-A)*%
X185052000Y-192888000D03*
%TD*%
D11*
%TO.P,TP6,1,1*%
%TO.N,+12VB*%
X195212000Y-185937500D03*
%TD*%
D14*
%TO.P,MT3,1,1*%
%TO.N,GND*%
X155000000Y-195000000D03*
%TD*%
D16*
%TO.P,J6,1*%
%TO.N,+12VA*%
X196460000Y-124150000D03*
D17*
%TO.P,J6,2*%
%TO.N,+12VB*%
X196460000Y-119950000D03*
%TO.P,J6,3*%
%TO.N,+15V*%
X196460000Y-115750000D03*
%TO.P,J6,4*%
%TO.N,-15V*%
X196460000Y-111550000D03*
%TO.P,J6,5*%
%TO.N,+5V*%
X196460000Y-107350000D03*
%TO.P,J6,6*%
%TO.N,-5V*%
X201960000Y-124150000D03*
%TO.P,J6,7*%
%TO.N,GND*%
X201960000Y-119950000D03*
%TO.P,J6,8*%
X201960000Y-115750000D03*
%TO.P,J6,9*%
X201960000Y-111550000D03*
%TO.P,J6,10*%
X201960000Y-107350000D03*
%TD*%
D12*
%TO.P,D1,1,K*%
%TO.N,GND*%
X175146000Y-195110500D03*
%TO.P,D1,2,A*%
%TO.N,Net-(D1-A)*%
X175146000Y-193235500D03*
%TD*%
D15*
%TO.P,D2,1,K*%
%TO.N,Net-(D2-K)*%
X170066000Y-193396000D03*
%TO.P,D2,2,A*%
%TO.N,GND*%
X170066000Y-195271000D03*
%TD*%
D13*
%TO.P,J2,1*%
%TO.N,+12VB*%
X157564301Y-175000000D03*
%TO.P,J2,2*%
%TO.N,unconnected-(J2-Pad2)*%
X157564301Y-172000001D03*
%TO.P,J2,3*%
%TO.N,GND*%
X160564300Y-175000000D03*
%TO.P,J2,4*%
X160564300Y-172000001D03*
%TD*%
D10*
%TO.P,R2,1*%
%TO.N,-15V*%
X170066000Y-189586000D03*
%TO.P,R2,2*%
%TO.N,Net-(D2-K)*%
X170066000Y-191236000D03*
%TD*%
D13*
%TO.P,J1,1*%
%TO.N,+12VA*%
X157564301Y-157999999D03*
%TO.P,J1,2*%
%TO.N,unconnected-(J1-Pad2)*%
X157564301Y-155000000D03*
%TO.P,J1,3*%
%TO.N,GND*%
X160564300Y-157999999D03*
%TO.P,J1,4*%
X160564300Y-155000000D03*
%TD*%
D14*
%TO.P,MT1,1,1*%
%TO.N,GND*%
X155000000Y-40000000D03*
%TD*%
D13*
%TO.P,J5,1*%
%TO.N,+12VA*%
X157564301Y-55225001D03*
%TO.P,J5,2*%
%TO.N,unconnected-(J5-Pad2)*%
X157564301Y-52225002D03*
%TO.P,J5,3*%
%TO.N,GND*%
X160564300Y-55225001D03*
%TO.P,J5,4*%
X160564300Y-52225002D03*
%TD*%
%TO.P,J3,1*%
%TO.N,+15V*%
X157564301Y-111839598D03*
%TO.P,J3,2*%
%TO.N,+5V*%
X157564301Y-108839599D03*
%TO.P,J3,3*%
%TO.N,GND*%
X157564301Y-105839600D03*
%TO.P,J3,4*%
X157564301Y-102839600D03*
%TO.P,J3,5*%
%TO.N,-5V*%
X157564301Y-99839601D03*
%TO.P,J3,6*%
%TO.N,-15V*%
X157564301Y-96839602D03*
%TO.P,J3,7*%
%TO.N,+15V*%
X160564300Y-111839598D03*
%TO.P,J3,8*%
%TO.N,+5V*%
X160564300Y-108839599D03*
%TO.P,J3,9*%
%TO.N,GND*%
X160564300Y-105839600D03*
%TO.P,J3,10*%
X160564300Y-102839600D03*
%TO.P,J3,11*%
%TO.N,-5V*%
X160564300Y-99839601D03*
%TO.P,J3,12*%
%TO.N,-15V*%
X160564300Y-96839602D03*
%TD*%
D14*
%TO.P,MT4,1,1*%
%TO.N,GND*%
X205000000Y-195000000D03*
%TD*%
D18*
%TO.N,GND*%
X190132000Y-196725500D03*
X179997000Y-196698000D03*
X170066000Y-196698000D03*
X195212000Y-196698000D03*
X185052000Y-196650500D03*
X175146000Y-196735500D03*
D19*
%TO.N,+5V*%
X172098000Y-137008000D03*
X172606000Y-79350000D03*
X172606000Y-107290000D03*
%TO.N,-5V*%
X176924000Y-129642000D03*
X175400000Y-71222000D03*
X176924000Y-99924000D03*
%TO.N,+15V*%
X168288000Y-83160000D03*
X168288000Y-115672000D03*
X168288000Y-111862000D03*
D18*
X197752000Y-133198000D03*
D19*
%TO.N,-15V*%
X180988000Y-111608000D03*
X180988000Y-125070000D03*
X178702000Y-68174000D03*
X180988000Y-96876000D03*
D18*
X195466000Y-133198000D03*
D19*
%TO.N,+12VA*%
X190640000Y-163424000D03*
X190640000Y-124054000D03*
X190640000Y-61316000D03*
%TO.N,+12VB*%
X185814000Y-177902000D03*
X185814000Y-119990000D03*
%TD*%
D20*
%TO.N,Net-(D1-A)*%
X175146000Y-193235500D02*
X175146000Y-191110000D01*
%TO.N,GND*%
X170066000Y-195271000D02*
X170066000Y-196698000D01*
D21*
X179997000Y-196698000D02*
X179997000Y-195067000D01*
X185052000Y-196650500D02*
X185052000Y-194763000D01*
D20*
X195212000Y-194763000D02*
X195212000Y-196698000D01*
X175146000Y-195110500D02*
X175146000Y-196735500D01*
D21*
X190132000Y-196725500D02*
X190132000Y-194838000D01*
D20*
%TO.N,Net-(D2-K)*%
X170066000Y-193396000D02*
X170066000Y-191236000D01*
%TO.N,+5V*%
X193180000Y-177757500D02*
X193180000Y-110630000D01*
D22*
X172090001Y-137000001D02*
X172098000Y-137008000D01*
X172606000Y-107290000D02*
X172606000Y-136484002D01*
X172606000Y-107290000D02*
X172606000Y-79350000D01*
X172606000Y-136484002D02*
X172090001Y-137000001D01*
D20*
X185000000Y-185937500D02*
X185000000Y-189175000D01*
X185000000Y-185937500D02*
X193180000Y-177757500D01*
X193180000Y-110630000D02*
X196460000Y-107350000D01*
D22*
%TO.N,-5V*%
X176924000Y-129642000D02*
X176924000Y-72746000D01*
X176924000Y-72746000D02*
X175400000Y-71222000D01*
D20*
X180000000Y-185937500D02*
X180000000Y-189175000D01*
D22*
%TO.N,+15V*%
X168288000Y-115672000D02*
X168288000Y-136754000D01*
D20*
X175080000Y-189394000D02*
X175080000Y-186017500D01*
D22*
X168288000Y-136754000D02*
X165042000Y-140000000D01*
X168288000Y-111862000D02*
X168288000Y-115672000D01*
D20*
X194958000Y-117252000D02*
X196460000Y-115750000D01*
D22*
X165042000Y-140000000D02*
X157564301Y-140000000D01*
D20*
X194958000Y-130404000D02*
X194958000Y-117252000D01*
X197752000Y-133198000D02*
X194958000Y-130404000D01*
D22*
X168288000Y-83160000D02*
X168288000Y-111862000D01*
%TO.N,-15V*%
X180988000Y-70460000D02*
X180988000Y-111608000D01*
D20*
X194557000Y-132289000D02*
X194557000Y-113453000D01*
D22*
X178702000Y-68174000D02*
X180988000Y-70460000D01*
D20*
X170066000Y-189586000D02*
X170066000Y-185953500D01*
D22*
X180988000Y-111608000D02*
X180988000Y-125070000D01*
D20*
X195466000Y-133198000D02*
X194557000Y-132289000D01*
X194557000Y-113453000D02*
X196460000Y-111550000D01*
%TO.N,Net-(D6-A)*%
X195212000Y-192888000D02*
X195212000Y-190856000D01*
%TO.N,+12VA*%
X190000000Y-189175000D02*
X190000000Y-185937500D01*
D22*
X190640000Y-61316000D02*
X190640000Y-163424000D01*
D20*
X190000000Y-185937500D02*
X199022000Y-176915500D01*
X199022000Y-176915500D02*
X199022000Y-131420000D01*
X199022000Y-131420000D02*
X196460000Y-128858000D01*
X196460000Y-128858000D02*
X196460000Y-124150000D01*
%TO.N,Net-(D3-A)*%
X185000000Y-192582000D02*
X185000000Y-190825000D01*
%TO.N,Net-(D4-K)*%
X180000000Y-192606000D02*
X180000000Y-190825000D01*
X179972000Y-192634000D02*
X180000000Y-192606000D01*
X179972000Y-193142000D02*
X179972000Y-192634000D01*
%TO.N,Net-(D5-A)*%
X190000000Y-190825000D02*
X190000000Y-192756000D01*
D22*
%TO.N,+12VB*%
X185814000Y-119990000D02*
X185814000Y-177902000D01*
D20*
X195212000Y-185937500D02*
X199530000Y-181619500D01*
X199530000Y-123020000D02*
X196460000Y-119950000D01*
X199530000Y-181619500D02*
X199530000Y-123020000D01*
X195212000Y-185937500D02*
X195212000Y-189206000D01*
%TD*%
M02*
