%TF.GenerationSoftware,KiCad,Pcbnew,9.0.6*%
%TF.CreationDate,2026-03-01T09:21:26-05:00*%
%TF.ProjectId,acmi-pwrbrd,61636d69-2d70-4777-9262-72642e6b6963,rev?*%
%TF.SameCoordinates,Original*%
%TF.FileFunction,Legend,Bot*%
%TF.FilePolarity,Positive*%
%FSLAX46Y46*%
G04 Gerber Fmt 4.6, Leading zero omitted, Abs format (unit mm)*
G04 Created by KiCad (PCBNEW 9.0.6) date 2026-03-01 09:21:26*
%MOMM*%
%LPD*%
G01*
G04 APERTURE LIST*
%ADD10C,0.508000*%
%ADD11C,1.026200*%
%ADD12C,1.576200*%
%ADD13C,0.010000*%
%ADD14C,2.800000*%
%ADD15C,1.574800*%
%ADD16C,7.500000*%
%ADD17C,3.000000*%
G04 APERTURE END LIST*
D10*
%TO.C,J7*%
X157945301Y-87815402D02*
G75*
G02*
X157183301Y-87815402I-381000J0D01*
G01*
X157183301Y-87815402D02*
G75*
G02*
X157945301Y-87815402I381000J0D01*
G01*
%TO.C,J4*%
X157945301Y-144590402D02*
G75*
G02*
X157183301Y-144590402I-381000J0D01*
G01*
X157183301Y-144590402D02*
G75*
G02*
X157945301Y-144590402I381000J0D01*
G01*
%TO.C,J2*%
X157945301Y-179590999D02*
G75*
G02*
X157183301Y-179590999I-381000J0D01*
G01*
X157183301Y-179590999D02*
G75*
G02*
X157945301Y-179590999I381000J0D01*
G01*
%TO.C,J1*%
X157945301Y-162590998D02*
G75*
G02*
X157183301Y-162590998I-381000J0D01*
G01*
X157183301Y-162590998D02*
G75*
G02*
X157945301Y-162590998I381000J0D01*
G01*
%TO.C,J5*%
X157945301Y-59816000D02*
G75*
G02*
X157183301Y-59816000I-381000J0D01*
G01*
X157183301Y-59816000D02*
G75*
G02*
X157945301Y-59816000I381000J0D01*
G01*
%TO.C,J3*%
X157945301Y-116430000D02*
G75*
G02*
X157183301Y-116430000I-381000J0D01*
G01*
X157183301Y-116430000D02*
G75*
G02*
X157945301Y-116430000I381000J0D01*
G01*
%TD*%
%LPC*%
D11*
%TO.C,J6*%
X196973100Y-107350000D02*
G75*
G02*
X195946900Y-107350000I-513100J0D01*
G01*
X195946900Y-107350000D02*
G75*
G02*
X196973100Y-107350000I513100J0D01*
G01*
X196973100Y-111550000D02*
G75*
G02*
X195946900Y-111550000I-513100J0D01*
G01*
X195946900Y-111550000D02*
G75*
G02*
X196973100Y-111550000I513100J0D01*
G01*
X196973100Y-115750000D02*
G75*
G02*
X195946900Y-115750000I-513100J0D01*
G01*
X195946900Y-115750000D02*
G75*
G02*
X196973100Y-115750000I513100J0D01*
G01*
X196973100Y-119950000D02*
G75*
G02*
X195946900Y-119950000I-513100J0D01*
G01*
X195946900Y-119950000D02*
G75*
G02*
X196973100Y-119950000I513100J0D01*
G01*
D12*
X202288100Y-102650000D02*
G75*
G02*
X200711900Y-102650000I-788100J0D01*
G01*
X200711900Y-102650000D02*
G75*
G02*
X202288100Y-102650000I788100J0D01*
G01*
X202288100Y-128850000D02*
G75*
G02*
X200711900Y-128850000I-788100J0D01*
G01*
X200711900Y-128850000D02*
G75*
G02*
X202288100Y-128850000I788100J0D01*
G01*
D11*
X202473100Y-107350000D02*
G75*
G02*
X201446900Y-107350000I-513100J0D01*
G01*
X201446900Y-107350000D02*
G75*
G02*
X202473100Y-107350000I513100J0D01*
G01*
X202473100Y-111550000D02*
G75*
G02*
X201446900Y-111550000I-513100J0D01*
G01*
X201446900Y-111550000D02*
G75*
G02*
X202473100Y-111550000I513100J0D01*
G01*
X202473100Y-115750000D02*
G75*
G02*
X201446900Y-115750000I-513100J0D01*
G01*
X201446900Y-115750000D02*
G75*
G02*
X202473100Y-115750000I513100J0D01*
G01*
X202473100Y-119950000D02*
G75*
G02*
X201446900Y-119950000I-513100J0D01*
G01*
X201446900Y-119950000D02*
G75*
G02*
X202473100Y-119950000I513100J0D01*
G01*
X202473100Y-124150000D02*
G75*
G02*
X201446900Y-124150000I-513100J0D01*
G01*
X201446900Y-124150000D02*
G75*
G02*
X202473100Y-124150000I513100J0D01*
G01*
D13*
X197486200Y-125176200D02*
X195433800Y-125176200D01*
X195433800Y-123123800D01*
X197486200Y-123123800D01*
X197486200Y-125176200D01*
G36*
X197486200Y-125176200D02*
G01*
X195433800Y-125176200D01*
X195433800Y-123123800D01*
X197486200Y-123123800D01*
X197486200Y-125176200D01*
G37*
%TD*%
D14*
%TO.C,TP3*%
X185000000Y-185937500D03*
%TD*%
%TO.C,TP1*%
X175000000Y-185937500D03*
%TD*%
D15*
%TO.C,J7*%
X157564301Y-83225000D03*
X157564301Y-80225001D03*
X157564301Y-77225002D03*
X157564301Y-74225002D03*
X157564301Y-71225003D03*
X157564301Y-68225004D03*
X160564300Y-83225000D03*
X160564300Y-80225001D03*
X160564300Y-77225002D03*
X160564300Y-74225002D03*
X160564300Y-71225003D03*
X160564300Y-68225004D03*
%TD*%
D16*
%TO.C,MT2*%
X205000000Y-40000000D03*
%TD*%
D14*
%TO.C,TP7*%
X164986000Y-186030000D03*
%TD*%
%TO.C,TP5*%
X190000000Y-185937500D03*
%TD*%
D15*
%TO.C,J4*%
X157564301Y-140000000D03*
X157564301Y-137000001D03*
X157564301Y-134000002D03*
X157564301Y-131000002D03*
X157564301Y-128000003D03*
X157564301Y-125000004D03*
X160564300Y-140000000D03*
X160564300Y-137000001D03*
X160564300Y-134000002D03*
X160564300Y-131000002D03*
X160564300Y-128000003D03*
X160564300Y-125000004D03*
%TD*%
D14*
%TO.C,TP4*%
X180000000Y-185937500D03*
%TD*%
%TO.C,TP2*%
X170000000Y-185887500D03*
%TD*%
%TO.C,TP6*%
X195212000Y-185937500D03*
%TD*%
D16*
%TO.C,MT3*%
X155000000Y-195000000D03*
%TD*%
D17*
%TO.C,J6*%
X201500000Y-102650000D03*
X201500000Y-128850000D03*
%TD*%
D15*
%TO.C,J2*%
X157564301Y-175000000D03*
X157564301Y-172000001D03*
X160564300Y-175000000D03*
X160564300Y-172000001D03*
%TD*%
%TO.C,J1*%
X157564301Y-157999999D03*
X157564301Y-155000000D03*
X160564300Y-157999999D03*
X160564300Y-155000000D03*
%TD*%
D16*
%TO.C,MT1*%
X155000000Y-40000000D03*
%TD*%
D15*
%TO.C,J5*%
X157564301Y-55225001D03*
X157564301Y-52225002D03*
X160564300Y-55225001D03*
X160564300Y-52225002D03*
%TD*%
%TO.C,J3*%
X157564301Y-111839598D03*
X157564301Y-108839599D03*
X157564301Y-105839600D03*
X157564301Y-102839600D03*
X157564301Y-99839601D03*
X157564301Y-96839602D03*
X160564300Y-111839598D03*
X160564300Y-108839599D03*
X160564300Y-105839600D03*
X160564300Y-102839600D03*
X160564300Y-99839601D03*
X160564300Y-96839602D03*
%TD*%
D16*
%TO.C,MT4*%
X205000000Y-195000000D03*
%TD*%
%LPD*%
M02*
