M48
; DRILL file {KiCad 9.0.6} date 2026-03-01T09:21:24-0500
; FORMAT={-:-/ absolute / metric / decimal}
; #@! TF.CreationDate,2026-03-01T09:21:24-05:00
; #@! TF.GenerationSoftware,Kicad,Pcbnew,9.0.6
; #@! TF.FileFunction,Plated,1,4,PTH
FMAT,2
METRIC
; #@! TA.AperFunction,Plated,PTH,ViaDrill
T1C0.500
; #@! TA.AperFunction,Plated,PTH,ComponentDrill
T2C1.067
; #@! TA.AperFunction,Plated,PTH,ViaDrill
T3C1.400
; #@! TA.AperFunction,Plated,PTH,ComponentDrill
T4C1.400
; #@! TA.AperFunction,Plated,PTH,ComponentDrill
T5C1.600
; #@! TA.AperFunction,Plated,PTH,ComponentDrill
T6C4.300
%
G90
G05
T1
X170.066Y-196.698
X175.146Y-196.736
X179.997Y-196.698
X185.052Y-196.65
X190.132Y-196.725
X195.212Y-196.698
X195.466Y-133.198
X197.752Y-133.198
T2
X157.564Y-52.225
X157.564Y-55.225
X157.564Y-68.225
X157.564Y-71.225
X157.564Y-74.225
X157.564Y-77.225
X157.564Y-80.225
X157.564Y-83.225
X157.564Y-96.84
X157.564Y-99.84
X157.564Y-102.84
X157.564Y-105.84
X157.564Y-108.84
X157.564Y-111.84
X157.564Y-125.0
X157.564Y-128.0
X157.564Y-131.0
X157.564Y-134.0
X157.564Y-137.0
X157.564Y-140.0
X157.564Y-155.0
X157.564Y-158.0
X157.564Y-172.0
X157.564Y-175.0
X160.564Y-52.225
X160.564Y-55.225
X160.564Y-68.225
X160.564Y-71.225
X160.564Y-74.225
X160.564Y-77.225
X160.564Y-80.225
X160.564Y-83.225
X160.564Y-96.84
X160.564Y-99.84
X160.564Y-102.84
X160.564Y-105.84
X160.564Y-108.84
X160.564Y-111.84
X160.564Y-125.0
X160.564Y-128.0
X160.564Y-131.0
X160.564Y-134.0
X160.564Y-137.0
X160.564Y-140.0
X160.564Y-155.0
X160.564Y-158.0
X160.564Y-172.0
X160.564Y-175.0
T3
X168.288Y-83.16
X168.288Y-111.862
X168.288Y-115.672
X172.098Y-137.008
X172.606Y-79.35
X172.606Y-107.29
X175.4Y-71.222
X176.924Y-99.924
X176.924Y-129.642
X178.702Y-68.174
X180.988Y-96.876
X180.988Y-111.608
X180.988Y-125.07
X185.814Y-119.99
X185.814Y-177.902
X190.64Y-61.316
X190.64Y-124.054
X190.64Y-163.424
T4
X196.46Y-107.35
X196.46Y-111.55
X196.46Y-115.75
X196.46Y-119.95
X196.46Y-124.15
X201.96Y-107.35
X201.96Y-111.55
X201.96Y-115.75
X201.96Y-119.95
X201.96Y-124.15
T5
X164.986Y-186.03
X170.0Y-185.887
X175.0Y-185.938
X180.0Y-185.938
X185.0Y-185.938
X190.0Y-185.938
X195.212Y-185.938
T6
X155.0Y-40.0
X155.0Y-195.0
X205.0Y-40.0
X205.0Y-195.0
M30
